<svg width="22" height="22" viewBox="0 0 22 22" fill="none" xmlns="http://www.w3.org/2000/svg">
<path d="M19.873 11.0268C19.873 16.081 15.7756 20.183 10.7168 20.183C5.65795 20.183 1.56055 16.081 1.56055 11.0268C1.56055 5.968 5.65795 1.8706 10.7168 1.8706C15.7756 1.8706 19.873 5.968 19.873 11.0268Z" fill="#283544"/>
<path d="M15.0085 8.70989C14.9585 8.73904 13.7691 9.35416 13.7691 10.718C13.8252 12.2734 15.2701 12.8189 15.2949 12.8189C15.2701 12.848 15.0767 13.562 14.504 14.3103C14.0494 14.955 13.5449 15.6049 12.7787 15.6049C12.05 15.6049 11.7884 15.1753 10.9475 15.1753C10.0445 15.1753 9.78895 15.6049 9.09756 15.6049C8.33143 15.6049 7.78953 14.9201 7.31019 14.2816C6.68745 13.4457 6.15815 12.1341 6.13946 10.8747C6.12687 10.2074 6.26417 9.55137 6.61271 8.99417C7.10464 8.21628 7.98289 7.68822 8.94198 7.67081C9.67684 7.64772 10.3309 8.14095 10.7793 8.14095C11.2091 8.14095 12.0126 7.67081 12.9217 7.67081C13.3141 7.67119 14.3606 7.78134 15.0085 8.70989ZM10.7172 7.53757C10.5864 6.92812 10.9475 6.31868 11.2838 5.92993C11.7136 5.45979 12.3924 5.14068 12.9778 5.14068C13.0152 5.75012 12.7783 6.34783 12.3551 6.78315C11.9752 7.25329 11.3212 7.60722 10.7172 7.53757Z" fill="white"/>
</svg>
