<svg width="32" height="32" viewBox="0 0 32 32" fill="none" xmlns="http://www.w3.org/2000/svg">
<path d="M23.978 16.0829C23.978 21.0217 19.9747 25.025 15.0359 25.025H15.0353C10.0965 25.0244 6.09375 21.0217 6.09375 16.0829C6.09375 11.1441 10.0965 7.14076 15.0353 7.14016H15.0359C19.9747 7.14016 23.978 11.1441 23.978 16.0829Z" fill="#FFC035"/>
<path d="M29.2504 14.6394C29.2056 14.5947 29.1449 14.5695 29.0816 14.5695C29.0183 14.5695 28.9575 14.5947 28.9128 14.6394L27.5653 15.9869C27.5406 12.6756 26.2405 9.56628 23.8965 7.22231C21.5298 4.85571 18.3831 3.55233 15.0359 3.55233C8.12656 3.55233 2.50537 9.17353 2.50537 16.0829C2.50537 22.9922 8.12656 28.6134 15.0359 28.6134C19.2904 28.6134 23.2185 26.4825 25.5434 22.9131C25.5605 22.8869 25.5723 22.8575 25.578 22.8266C25.5838 22.7958 25.5834 22.7642 25.5769 22.7335C25.5705 22.7028 25.558 22.6737 25.5403 22.6478C25.5226 22.6219 25.4999 22.5998 25.4736 22.5827C25.4474 22.5656 25.418 22.5538 25.3871 22.548C25.3563 22.5423 25.3247 22.5427 25.294 22.5491C25.2633 22.5556 25.2342 22.5681 25.2083 22.5858C25.1825 22.6035 25.1603 22.6262 25.1432 22.6524C22.9068 26.086 19.1283 28.1358 15.0359 28.1358C8.38989 28.1358 2.98295 22.7289 2.98295 16.0829C2.98295 9.43685 8.38989 4.02992 15.0359 4.02992C21.649 4.02992 27.0345 9.38367 27.0876 15.9845L25.7426 14.6394C25.7205 14.6169 25.6941 14.5989 25.6651 14.5866C25.636 14.5742 25.6048 14.5678 25.5732 14.5676C25.5416 14.5675 25.5103 14.5735 25.4811 14.5856C25.4519 14.5976 25.4253 14.6152 25.403 14.6376C25.3807 14.6599 25.363 14.6865 25.351 14.7157C25.339 14.7449 25.3329 14.7762 25.3331 14.8078C25.3333 14.8394 25.3397 14.8706 25.352 14.8997C25.3644 14.9287 25.3823 14.9551 25.4049 14.9772L27.1588 16.7311C27.2036 16.7758 27.2644 16.801 27.3277 16.801C27.391 16.801 27.4517 16.7758 27.4965 16.7311L29.2504 14.9772C29.2726 14.955 29.2902 14.9287 29.3022 14.8997C29.3142 14.8707 29.3204 14.8397 29.3204 14.8083C29.3204 14.7769 29.3142 14.7459 29.3022 14.7169C29.2902 14.6879 29.2726 14.6616 29.2504 14.6394Z" fill="#303C44"/>
<path opacity="0.2" d="M23.9784 16.0829C23.9784 21.0217 19.975 25.025 15.0362 25.025H15.0356V7.14017H15.0362C19.975 7.14017 23.9784 11.1441 23.9784 16.0829Z" fill="url(#paint0_linear_518_583)"/>
<defs>
<linearGradient id="paint0_linear_518_583" x1="15.0356" y1="16.0826" x2="23.9784" y2="16.0826" gradientUnits="userSpaceOnUse">
<stop/>
<stop offset="1" stop-color="white" stop-opacity="0"/>
</linearGradient>
</defs>
</svg>
